<svg width="25" height="24" viewBox="0 0 25 24" fill="none" xmlns="http://www.w3.org/2000/svg">
<g opacity="0.4">
<path d="M16.8302 2.25H7.8302C6.43827 2.25149 5.10378 2.80509 4.11953 3.78933C3.13529 4.77358 2.58169 6.10807 2.5802 7.5V16.5C2.58169 17.8919 3.13529 19.2264 4.11953 20.2107C5.10378 21.1949 6.43827 21.7485 7.8302 21.75H16.8302C18.2221 21.7485 19.5566 21.1949 20.5409 20.2107C21.5251 19.2264 22.0787 17.8919 22.0802 16.5V7.5C22.0787 6.10807 21.5251 4.77358 20.5409 3.78933C19.5566 2.80509 18.2221 2.25149 16.8302 2.25ZM12.3302 16.5C11.4402 16.5 10.5702 16.2361 9.83013 15.7416C9.09011 15.2471 8.51334 14.5443 8.17274 13.7221C7.83215 12.8998 7.74303 11.995 7.91667 11.1221C8.0903 10.2492 8.51888 9.44736 9.14822 8.81802C9.77756 8.18868 10.5794 7.7601 11.4523 7.58647C12.3252 7.41283 13.23 7.50195 14.0523 7.84254C14.8745 8.18314 15.5773 8.75991 16.0718 9.49993C16.5663 10.24 16.8302 11.11 16.8302 12C16.829 13.1931 16.3545 14.337 15.5108 15.1806C14.6672 16.0243 13.5233 16.4988 12.3302 16.5ZM17.9552 7.5C17.7327 7.5 17.5152 7.43402 17.3302 7.3104C17.1452 7.18679 17.001 7.01109 16.9158 6.80552C16.8307 6.59995 16.8084 6.37375 16.8518 6.15552C16.8952 5.93729 17.0024 5.73684 17.1597 5.5795C17.317 5.42217 17.5175 5.31502 17.7357 5.27162C17.954 5.22821 18.1802 5.25049 18.3857 5.33564C18.5913 5.42078 18.767 5.56498 18.8906 5.74998C19.0142 5.93499 19.0802 6.1525 19.0802 6.375C19.0802 6.67337 18.9617 6.95952 18.7507 7.1705C18.5397 7.38147 18.2536 7.5 17.9552 7.5ZM15.3302 12C15.3302 12.5933 15.1543 13.1734 14.8246 13.6667C14.495 14.1601 14.0264 14.5446 13.4783 14.7716C12.9301 14.9987 12.3269 15.0581 11.7449 14.9424C11.163 14.8266 10.6284 14.5409 10.2089 14.1213C9.78932 13.7018 9.5036 13.1672 9.38784 12.5853C9.27209 12.0033 9.3315 11.4001 9.55856 10.8519C9.78562 10.3038 10.1701 9.83524 10.6635 9.50559C11.1568 9.17595 11.7369 9 12.3302 9C13.1258 9 13.8889 9.31607 14.4515 9.87868C15.0141 10.4413 15.3302 11.2044 15.3302 12Z" fill="white"/>
</g>
</svg>
