<svg width="25" height="24" viewBox="0 0 25 24" fill="none" xmlns="http://www.w3.org/2000/svg">
<g opacity="0.4">
<path d="M20.4864 20.6109C20.4219 20.7286 20.3269 20.8267 20.2115 20.8951C20.0961 20.9636 19.9644 20.9998 19.8302 21H15.3302C15.204 21 15.0798 20.9681 14.9692 20.9073C14.8586 20.8465 14.7651 20.7587 14.6974 20.6522L10.9014 14.6869L5.3852 20.7544C5.25073 20.8988 5.06474 20.9845 4.86755 20.9927C4.67037 21.0009 4.47789 20.9311 4.33184 20.7984C4.18578 20.6657 4.09793 20.4807 4.08733 20.2836C4.07673 20.0866 4.14423 19.8933 4.2752 19.7456L10.0661 13.3706L4.19739 4.15313C4.12511 4.03973 4.08464 3.90898 4.08024 3.77458C4.07583 3.64018 4.10764 3.50707 4.17233 3.38918C4.23703 3.27129 4.33223 3.17296 4.44797 3.10449C4.56371 3.03603 4.69572 2.99993 4.8302 3H9.3302C9.45643 3.00004 9.5806 3.03194 9.69122 3.09274C9.80184 3.15353 9.89532 3.24127 9.96301 3.34781L13.7589 9.31312L19.2752 3.24562C19.4097 3.10117 19.5957 3.01555 19.7928 3.00731C19.99 2.99907 20.1825 3.06888 20.3286 3.20161C20.4746 3.33435 20.5625 3.51929 20.5731 3.71636C20.5837 3.91343 20.5162 4.10674 20.3852 4.25438L14.5943 10.6247L20.463 19.8478C20.5349 19.9613 20.575 20.0919 20.5791 20.2262C20.5832 20.3604 20.5512 20.4933 20.4864 20.6109Z" fill="white"/>
</g>
</svg>
