<svg width="25" height="24" viewBox="0 0 25 24" fill="none" xmlns="http://www.w3.org/2000/svg">
<g opacity="0.4">
<path d="M22.2986 6.5175C22.2103 6.17189 22.0411 5.85224 21.8049 5.58491C21.5687 5.31758 21.2723 5.11024 20.9402 4.98C17.7264 3.73875 12.6115 3.75 12.3302 3.75C12.049 3.75 6.93395 3.73875 3.7202 4.98C3.3881 5.11024 3.09173 5.31758 2.85554 5.58491C2.61935 5.85224 2.4501 6.17189 2.36176 6.5175C2.11895 7.45313 1.8302 9.16313 1.8302 12C1.8302 14.8369 2.11895 16.5469 2.36176 17.4825C2.44997 17.8283 2.61915 18.1481 2.85535 18.4156C3.09156 18.6831 3.388 18.8906 3.7202 19.0209C6.79895 20.2088 11.6177 20.25 12.2683 20.25H12.3921C13.0427 20.25 17.8643 20.2088 20.9402 19.0209C21.2724 18.8906 21.5688 18.6831 21.805 18.4156C22.0412 18.1481 22.2104 17.8283 22.2986 17.4825C22.5415 16.545 22.8302 14.8369 22.8302 12C22.8302 9.16313 22.5415 7.45313 22.2986 6.5175ZM15.3855 12.6113L11.6355 15.2363C11.5233 15.3148 11.3918 15.3612 11.2551 15.3703C11.1185 15.3794 10.9819 15.351 10.8603 15.288C10.7387 15.225 10.6366 15.1299 10.5652 15.013C10.4938 14.8962 10.4558 14.762 10.4552 14.625V9.375C10.4552 9.2378 10.4929 9.10324 10.5641 8.98597C10.6353 8.86869 10.7373 8.77319 10.8591 8.70987C10.9808 8.64655 11.1175 8.61783 11.2544 8.62683C11.3913 8.63584 11.5231 8.68222 11.6355 8.76094L15.3855 11.3859C15.4842 11.4551 15.5647 11.547 15.6203 11.6539C15.6759 11.7608 15.7049 11.8795 15.7049 12C15.7049 12.1205 15.6759 12.2392 15.6203 12.3461C15.5647 12.453 15.4842 12.5449 15.3855 12.6141V12.6113Z" fill="white"/>
</g>
</svg>
